<svg width="627" height="592" viewBox="0 0 627 592" fill="none" xmlns="http://www.w3.org/2000/svg">
<rect width="627" height="592" rx="296" fill="white" fill-opacity="0.1"/>
<g clip-path="url(#clip0_450_1967)">
<mask id="mask0_450_1967" style="mask-type:alpha" maskUnits="userSpaceOnUse" x="35" y="135" width="558" height="331">
<rect x="35" y="135.4" width="557.811" height="330.304" fill="url(#paint0_linear_450_1967)"/>
</mask>
<g mask="url(#mask0_450_1967)">
<path d="M522.899 178.781L491.37 164.457L361.525 165.01L339.048 154.028L320.03 164.773L238.763 164.47L206.562 144.389H159.741L152.498 164.464H111.691L35 330.563L120.37 461.619H507.625L592.995 330.563L522.894 178.774L522.899 178.781ZM505.656 455.677H122.339L40.4475 329.958L114.114 170.405H155.232L162.469 150.33H205.609L237.8 170.405L320.896 170.714L339.16 160.391L360.766 170.951L490.664 170.398L520.025 183.736L587.548 329.944L505.656 455.664V455.677Z" fill="url(#paint1_linear_450_1967)"/>
</g>
<path d="M587.552 329.957L505.656 455.67H122.339L40.4474 329.957L114.114 170.404H155.232L162.469 150.33H205.609L237.805 170.404L320.896 170.72L339.159 160.397L360.766 170.957L490.663 170.404L520.025 183.748L587.552 329.957Z" fill="url(#paint2_linear_450_1967)"/>
<path d="M587.542 329.957L520.028 183.748L490.657 170.411L360.769 170.951L339.163 160.39L320.89 170.714L237.799 170.411L205.608 150.336H162.473L155.235 170.411H114.123L40.451 329.957H89.7155L126.846 367.494H186.982L195.985 329.957H234.993L243.958 276.845H252.855L264.872 269.726L262.352 305.77L295.578 329.957H587.542Z" fill="#4A357D"/>
<path d="M66.5382 310.343H108.507L115.72 291.525H97.109L110.278 260.126L131.855 249.441L138.671 231.675L118.135 241.394L129.063 215.331L122.624 202.099H134.617H150.012L154.641 190.025H122.097L66.5382 310.343Z" fill="white"/>
<path d="M171.468 169.943L147.104 237.557L176.644 261.402L188.236 269.548L170.694 282.503L158.313 326.384H138.444L159.692 259.579L143.819 246.67L113.809 329.937L131.608 347.88H176.518L198.768 255.079L168.362 232.32L184.728 180.866H199.358L209.315 186.557L195.232 195.499L185.619 229.589L202.005 241.564L216.983 179.089L202.44 169.943H171.468Z" fill="white"/>
<path d="M226.238 190.024L200.829 310.342H223.504L232.474 257.23H249.851L271.438 244.445L275.439 200.269L258.777 190.024H226.233H226.238ZM255.376 215.679L251.893 241.899H235.067L241.787 202.092H257.181L268.54 208.375L255.376 215.672V215.679Z" fill="white"/>
<path d="M284.931 190.024L277.617 294.636L299.194 310.342H341.163L335.584 200.269L317.481 190.024H284.936H284.931ZM317.786 227.042L318.328 291.517H299.716L302.188 202.092H317.583L329.411 208.375L317.791 227.042H317.786Z" fill="white"/>
<path d="M347.994 200.315L356.774 310.342H379.45L372.962 257.23H390.34L398.739 310.342H421.419L411.245 259.579L397.897 251.894L408.211 244.445L397.302 190.024H364.757L347.994 200.315V200.315ZM387.921 241.899H371.095L367.911 215.817L354.781 208.382L366.233 202.098H381.627L387.921 241.906V241.899Z" fill="white"/>
<path d="M405.715 202.098H420.872L447.92 310.342H470.601L442.792 215.172L426.909 201.953H453.847L449.948 190.024H403.126L405.715 202.098Z" fill="white"/>
<path d="M529.7 241.564L510.566 200.131L488.312 190.024H455.767L471.984 237.556L518.249 261.402L530.886 291.524H512.269L500.025 259.579L475.09 246.669L491.452 294.636L519.488 310.342H561.456L535.936 255.078L489.57 232.319L483.073 215.37L466 202.098H493.377L504.906 229.588L529.7 241.564Z" fill="white"/>
<path d="M339.922 175.608C337.547 178.759 334.857 181.681 331.901 184.332C335.133 187.01 338.205 190.063 341.074 193.439C343.507 190.063 346.187 187.01 349.071 184.332C345.771 181.681 342.704 178.759 339.922 175.608Z" fill="#E2D45C"/>
<path d="M92.1123 295.472L105.731 262.994C100.68 263.777 95.673 264.58 90.7093 265.415L71.7882 306.394H106.747L110.932 295.472H92.1123V295.472Z" fill="url(#paint3_linear_450_1967)"/>
<path d="M189.756 252.841C184.347 253.321 178.972 253.834 173.631 254.38L178.053 257.947L192.581 268.152L195.261 256.96L189.756 252.841V252.841ZM173.017 285.272L160.312 330.331H134.028L156.021 261.19L150.728 256.887C148.155 257.19 145.586 257.499 143.031 257.822L117.482 328.718L132.567 343.931H174.41L191.797 271.409L173.017 285.272V285.272Z" fill="url(#paint4_linear_450_1967)"/>
<path d="M257.609 248.334L249.254 253.282H230.168L221.199 306.394H204.687L216.448 250.696C229.984 249.729 243.709 248.939 257.609 248.334Z" fill="url(#paint5_linear_450_1967)"/>
<path d="M338.052 306.394H299.924L280.689 292.399L283.838 247.4C288.555 247.268 293.287 247.163 298.038 247.078L296.702 295.472H321.264L320.858 246.821C323.03 246.814 325.207 246.808 327.389 246.808C329.944 246.808 332.493 246.814 335.033 246.828L338.052 306.394V306.394Z" fill="url(#paint6_linear_450_1967)"/>
<path d="M417.621 306.394H401.085L392.687 253.282H369.537L376.025 306.394H359.378L354.641 247.038C368.807 247.274 382.822 247.702 396.668 248.307L391.148 252.295L408.816 262.467L417.621 306.394V306.394Z" fill="url(#paint7_linear_450_1967)"/>
<path d="M450.312 251.597C445.581 251.222 440.825 250.867 436.045 250.538L450.003 306.393H466.326L450.312 251.597Z" fill="url(#paint8_linear_450_1967)"/>
<path d="M535.223 260.948C530.37 260.257 525.484 259.586 520.559 258.941L535.885 295.472H510.511L497.961 262.738L481.981 254.46C481.623 254.421 481.27 254.388 480.912 254.355L493.612 291.577L520.061 306.394H556.209L535.223 260.948V260.948Z" fill="url(#paint9_linear_450_1967)"/>
<path fill-rule="evenodd" clip-rule="evenodd" d="M266.243 398.881V390.761L249.751 399.104H249.717V407.434H249.751L266.243 415.777V407.645L257.792 403.249L266.243 398.881V398.881Z" fill="#996DFF"/>
<path fill-rule="evenodd" clip-rule="evenodd" d="M361.774 415.356V407.237L370.221 402.868L361.774 398.499V390.38L378.242 398.716H378.281V407.053H378.242L361.774 415.35V415.356ZM354.701 378.911L345.015 421.193H350.767L360.453 378.911H354.701Z" fill="#996DFF"/>
<path fill-rule="evenodd" clip-rule="evenodd" d="M290.477 389.228C292.113 391.675 292.974 394.899 292.872 398.203V416.211H287.12V399.854C287.188 398.031 286.757 396.242 285.92 394.821C285.122 393.557 283.941 392.86 282.717 392.932C279.118 392.932 277.313 396.327 277.313 403.124V416.218H271.561V386.648H277.313V389.32C279.137 386.905 281.614 385.622 284.159 385.767C286.53 385.629 288.833 386.892 290.473 389.228H290.477Z" fill="white"/>
<path fill-rule="evenodd" clip-rule="evenodd" d="M300.192 374.351V416.633H305.944V374.351H300.192Z" fill="white"/>
<path fill-rule="evenodd" clip-rule="evenodd" d="M338.444 415.086H333.645L328.943 397.67L324.197 415.086H319.407L311.347 385.464H317.491L322.02 403.177L326.688 385.464H331.173L335.842 403.236L340.37 385.464H346.514L338.444 415.086V415.086Z" fill="white"/>
<path d="M58.4501 159.035C64.9619 137.644 78.1114 120.787 97.5211 108.937C116.118 97.5802 139.683 91.2637 167.555 90.1714C224.69 87.9277 293.665 107.812 361.758 146.178C366.654 148.935 371.507 151.765 376.306 154.666L369.518 154.693C366.606 152.975 363.669 151.284 360.708 149.62C221.197 71.0309 86.7374 75.8933 60.9803 160.463C53.5203 184.953 55.9828 213.476 66.6359 243.559C92.7557 317.371 168.164 400.545 267.283 456.381C276.872 461.783 286.471 466.81 296.054 471.462C354.201 499.702 411.632 514.013 460.36 512.099C487.873 511.019 511.08 504.815 529.348 493.662C548.105 482.213 560.775 466.02 567.011 445.538C572.638 427.055 572.619 406.276 567.689 384.26L569.793 381.03C575.57 405.296 575.492 427.45 569.547 446.965C563.03 468.356 549.885 485.214 530.471 497.064C511.874 508.42 488.313 514.737 460.442 515.829C457.529 515.941 454.588 516 451.618 516C402.498 516 345.445 500.426 288.043 471.462C280.772 467.797 273.5 463.915 266.234 459.822C198.14 421.462 139.03 369.199 99.7949 312.659C84.3668 290.426 72.6784 268.489 64.9329 247.243C63.0655 242.131 61.4303 237.065 60.0273 232.044C52.4656 204.995 51.9334 180.433 58.4501 159.035V159.035Z" fill="url(#paint10_linear_450_1967)"/>
<path d="M58.4501 159.035C64.9619 137.644 78.1114 120.787 97.5211 108.937C116.118 97.5802 139.683 91.2637 167.555 90.1714C224.69 87.9277 293.665 107.812 361.758 146.178C366.654 148.935 371.507 151.765 376.306 154.666L369.518 154.693C366.606 152.975 363.669 151.284 360.708 149.62C221.197 71.0309 86.7374 75.8933 60.9803 160.463C53.5203 184.953 55.9828 213.476 66.6359 243.559C92.7557 317.371 168.164 400.545 267.283 456.381C276.872 461.783 286.471 466.81 296.054 471.462C354.201 499.702 411.632 514.013 460.36 512.099C487.873 511.019 511.08 504.815 529.348 493.662C548.105 482.213 560.775 466.02 567.011 445.538C572.638 427.055 572.619 406.276 567.689 384.26L569.793 381.03C575.57 405.296 575.492 427.45 569.547 446.965C563.03 468.356 549.885 485.214 530.471 497.064C511.874 508.42 488.313 514.737 460.442 515.829C457.529 515.941 454.588 516 451.618 516C402.498 516 345.445 500.426 288.043 471.462C280.772 467.797 273.5 463.915 266.234 459.822C198.14 421.462 139.03 369.199 99.7949 312.659C84.3668 290.426 72.6784 268.489 64.9329 247.243C63.0655 242.131 61.4303 237.065 60.0273 232.044C52.4656 204.995 51.9334 180.433 58.4501 159.035V159.035Z" fill="url(#paint11_radial_450_1967)"/>
<path d="M58.4501 159.035C64.9619 137.644 78.1114 120.787 97.5211 108.937C116.118 97.5802 139.683 91.2637 167.555 90.1714C224.69 87.9277 293.665 107.812 361.758 146.178C366.654 148.935 371.507 151.765 376.306 154.666L369.518 154.693C366.606 152.975 363.669 151.284 360.708 149.62C221.197 71.0309 86.7374 75.8933 60.9803 160.463C53.5203 184.953 55.9828 213.476 66.6359 243.559C92.7557 317.371 168.164 400.545 267.283 456.381C276.872 461.783 286.471 466.81 296.054 471.462C354.201 499.702 411.632 514.013 460.36 512.099C487.873 511.019 511.08 504.815 529.348 493.662C548.105 482.213 560.775 466.02 567.011 445.538C572.638 427.055 572.619 406.276 567.689 384.26L569.793 381.03C575.57 405.296 575.492 427.45 569.547 446.965C563.03 468.356 549.885 485.214 530.471 497.064C511.874 508.42 488.313 514.737 460.442 515.829C457.529 515.941 454.588 516 451.618 516C402.498 516 345.445 500.426 288.043 471.462C280.772 467.797 273.5 463.915 266.234 459.822C198.14 421.462 139.03 369.199 99.7949 312.659C84.3668 290.426 72.6784 268.489 64.9329 247.243C63.0655 242.131 61.4303 237.065 60.0273 232.044C52.4656 204.995 51.9334 180.433 58.4501 159.035V159.035Z" fill="url(#paint12_radial_450_1967)"/>
<path d="M58.4501 159.035C64.9619 137.644 78.1114 120.787 97.5211 108.937C116.118 97.5802 139.683 91.2637 167.555 90.1714C224.69 87.9277 293.665 107.812 361.758 146.178C366.654 148.935 371.507 151.765 376.306 154.666L369.518 154.693C366.606 152.975 363.669 151.284 360.708 149.62C221.197 71.0309 86.7374 75.8933 60.9803 160.463C53.5203 184.953 55.9828 213.476 66.6359 243.559C92.7557 317.371 168.164 400.545 267.283 456.381C276.872 461.783 286.471 466.81 296.054 471.462C354.201 499.702 411.632 514.013 460.36 512.099C487.873 511.019 511.08 504.815 529.348 493.662C548.105 482.213 560.775 466.02 567.011 445.538C572.638 427.055 572.619 406.276 567.689 384.26L569.793 381.03C575.57 405.296 575.492 427.45 569.547 446.965C563.03 468.356 549.885 485.214 530.471 497.064C511.874 508.42 488.313 514.737 460.442 515.829C457.529 515.941 454.588 516 451.618 516C402.498 516 345.445 500.426 288.043 471.462C280.772 467.797 273.5 463.915 266.234 459.822C198.14 421.462 139.03 369.199 99.7949 312.659C84.3668 290.426 72.6784 268.489 64.9329 247.243C63.0655 242.131 61.4303 237.065 60.0273 232.044C52.4656 204.995 51.9334 180.433 58.4501 159.035V159.035Z" fill="url(#paint13_radial_450_1967)"/>
<path d="M569.546 159.035C563.034 137.644 549.885 120.787 530.475 108.937C511.878 97.5802 488.313 91.2637 460.442 90.1714C403.306 87.9277 334.332 107.812 266.238 146.178C261.342 148.935 256.49 151.765 251.69 154.666L258.478 154.693C261.39 152.975 264.327 151.284 267.288 149.62C406.799 71.0309 541.259 75.8933 567.016 160.463C574.476 184.953 572.013 213.476 561.36 243.559C535.241 317.371 459.832 400.545 360.713 456.381C351.124 461.783 341.526 466.81 331.942 471.462C273.795 499.702 216.364 514.013 167.637 512.099C140.123 511.019 116.916 504.815 98.648 493.662C79.8914 482.213 67.2209 466.02 60.9848 445.538C55.3583 427.055 55.3777 406.276 60.3075 384.26L58.203 381.03C52.4265 405.296 52.5039 427.45 58.4497 446.965C64.9664 468.356 78.111 485.214 97.5256 497.064C116.122 508.42 139.683 514.737 167.554 515.829C170.467 515.941 173.408 516 176.379 516C225.498 516 282.552 500.426 339.953 471.462C347.225 467.797 354.496 463.915 361.763 459.822C429.856 421.462 488.966 369.199 528.201 312.659C543.629 290.426 555.318 268.489 563.063 247.243C564.931 242.131 566.566 237.065 567.969 232.044C575.531 204.995 576.063 180.433 569.546 159.035V159.035Z" fill="url(#paint14_linear_450_1967)"/>
<path d="M569.546 159.035C563.034 137.644 549.885 120.787 530.475 108.937C511.878 97.5802 488.313 91.2637 460.442 90.1714C403.306 87.9277 334.332 107.812 266.238 146.178C261.342 148.935 256.49 151.765 251.69 154.666L258.478 154.693C261.39 152.975 264.327 151.284 267.288 149.62C406.799 71.0309 541.259 75.8933 567.016 160.463C574.476 184.953 572.013 213.476 561.36 243.559C535.241 317.371 459.832 400.545 360.713 456.381C351.124 461.783 341.526 466.81 331.942 471.462C273.795 499.702 216.364 514.013 167.637 512.099C140.123 511.019 116.916 504.815 98.648 493.662C79.8914 482.213 67.2209 466.02 60.9848 445.538C55.3583 427.055 55.3777 406.276 60.3075 384.26L58.203 381.03C52.4265 405.296 52.5039 427.45 58.4497 446.965C64.9664 468.356 78.111 485.214 97.5256 497.064C116.122 508.42 139.683 514.737 167.554 515.829C170.467 515.941 173.408 516 176.379 516C225.498 516 282.552 500.426 339.953 471.462C347.225 467.797 354.496 463.915 361.763 459.822C429.856 421.462 488.966 369.199 528.201 312.659C543.629 290.426 555.318 268.489 563.063 247.243C564.931 242.131 566.566 237.065 567.969 232.044C575.531 204.995 576.063 180.433 569.546 159.035V159.035Z" fill="url(#paint15_radial_450_1967)"/>
<path d="M569.546 159.035C563.034 137.644 549.885 120.787 530.475 108.937C511.878 97.5802 488.313 91.2637 460.442 90.1714C403.306 87.9277 334.332 107.812 266.238 146.178C261.342 148.935 256.49 151.765 251.69 154.666L258.478 154.693C261.39 152.975 264.327 151.284 267.288 149.62C406.799 71.0309 541.259 75.8933 567.016 160.463C574.476 184.953 572.013 213.476 561.36 243.559C535.241 317.371 459.832 400.545 360.713 456.381C351.124 461.783 341.526 466.81 331.942 471.462C273.795 499.702 216.364 514.013 167.637 512.099C140.123 511.019 116.916 504.815 98.648 493.662C79.8914 482.213 67.2209 466.02 60.9848 445.538C55.3583 427.055 55.3777 406.276 60.3075 384.26L58.203 381.03C52.4265 405.296 52.5039 427.45 58.4497 446.965C64.9664 468.356 78.111 485.214 97.5256 497.064C116.122 508.42 139.683 514.737 167.554 515.829C170.467 515.941 173.408 516 176.379 516C225.498 516 282.552 500.426 339.953 471.462C347.225 467.797 354.496 463.915 361.763 459.822C429.856 421.462 488.966 369.199 528.201 312.659C543.629 290.426 555.318 268.489 563.063 247.243C564.931 242.131 566.566 237.065 567.969 232.044C575.531 204.995 576.063 180.433 569.546 159.035V159.035Z" fill="url(#paint16_radial_450_1967)"/>
</g>
<defs>
<linearGradient id="paint0_linear_450_1967" x1="313.906" y1="289.038" x2="313.906" y2="450.9" gradientUnits="userSpaceOnUse">
<stop stop-color="#D9D9D9"/>
<stop offset="1" stop-color="#D9D9D9" stop-opacity="0"/>
</linearGradient>
<linearGradient id="paint1_linear_450_1967" x1="35" y1="303" x2="593" y2="303" gradientUnits="userSpaceOnUse">
<stop stop-color="#996DFF"/>
<stop offset="0.5" stop-color="#35E8B3"/>
<stop offset="1" stop-color="#E2D45C"/>
</linearGradient>
<linearGradient id="paint2_linear_450_1967" x1="313.997" y1="334.714" x2="313.997" y2="452.545" gradientUnits="userSpaceOnUse">
<stop stop-color="#28203E"/>
<stop offset="1" stop-color="#121214" stop-opacity="0"/>
</linearGradient>
<linearGradient id="paint3_linear_450_1967" x1="91.3624" y1="252.453" x2="91.3624" y2="298.887" gradientUnits="userSpaceOnUse">
<stop stop-color="#A9A9AD"/>
<stop offset="1" stop-color="#A9A9AD" stop-opacity="0"/>
</linearGradient>
<linearGradient id="paint4_linear_450_1967" x1="156.374" y1="252.452" x2="156.374" y2="298.886" gradientUnits="userSpaceOnUse">
<stop stop-color="#A9A9AD"/>
<stop offset="1" stop-color="#A9A9AD" stop-opacity="0"/>
</linearGradient>
<linearGradient id="paint5_linear_450_1967" x1="231.15" y1="252.453" x2="231.15" y2="298.886" gradientUnits="userSpaceOnUse">
<stop stop-color="#A9A9AD"/>
<stop offset="1" stop-color="#A9A9AD" stop-opacity="0"/>
</linearGradient>
<linearGradient id="paint6_linear_450_1967" x1="309.373" y1="252.453" x2="309.373" y2="298.887" gradientUnits="userSpaceOnUse">
<stop stop-color="#A9A9AD"/>
<stop offset="1" stop-color="#A9A9AD" stop-opacity="0"/>
</linearGradient>
<linearGradient id="paint7_linear_450_1967" x1="386.131" y1="252.453" x2="386.131" y2="298.886" gradientUnits="userSpaceOnUse">
<stop stop-color="#A9A9AD"/>
<stop offset="1" stop-color="#A9A9AD" stop-opacity="0"/>
</linearGradient>
<linearGradient id="paint8_linear_450_1967" x1="451.188" y1="252.453" x2="451.188" y2="298.886" gradientUnits="userSpaceOnUse">
<stop stop-color="#A9A9AD"/>
<stop offset="1" stop-color="#A9A9AD" stop-opacity="0"/>
</linearGradient>
<linearGradient id="paint9_linear_450_1967" x1="518.561" y1="252.454" x2="518.561" y2="298.887" gradientUnits="userSpaceOnUse">
<stop stop-color="#A9A9AD"/>
<stop offset="1" stop-color="#A9A9AD" stop-opacity="0"/>
</linearGradient>
<linearGradient id="paint10_linear_450_1967" x1="541.288" y1="394.972" x2="164.41" y2="396.395" gradientUnits="userSpaceOnUse">
<stop stop-color="#996DFF"/>
<stop offset="0.5" stop-color="#35E8B3"/>
<stop offset="1" stop-color="#E2D45C"/>
</linearGradient>
<radialGradient id="paint11_radial_450_1967" cx="0" cy="0" r="1" gradientUnits="userSpaceOnUse" gradientTransform="translate(310.556 479.29) rotate(20.9996) scale(261.164 555.031)">
<stop stop-color="#171226"/>
<stop offset="1" stop-color="#171226" stop-opacity="0"/>
</radialGradient>
<radialGradient id="paint12_radial_450_1967" cx="0" cy="0" r="1" gradientUnits="userSpaceOnUse" gradientTransform="translate(375.515 156.563) rotate(-150.046) scale(60.595 121.178)">
<stop stop-color="#261945"/>
<stop offset="1" stop-color="#261945" stop-opacity="0"/>
</radialGradient>
<radialGradient id="paint13_radial_450_1967" cx="0" cy="0" r="1" gradientUnits="userSpaceOnUse" gradientTransform="translate(570.392 375.614) rotate(80.162) scale(86.7991 108.609)">
<stop stop-color="#191326"/>
<stop offset="1" stop-color="#191326" stop-opacity="0"/>
</radialGradient>
<linearGradient id="paint14_linear_450_1967" x1="328.353" y1="137.199" x2="468.174" y2="397.836" gradientUnits="userSpaceOnUse">
<stop stop-color="#996DFF"/>
<stop offset="0.5" stop-color="#35E8B3"/>
<stop offset="1" stop-color="#E2D45C"/>
</linearGradient>
<radialGradient id="paint15_radial_450_1967" cx="0" cy="0" r="1" gradientUnits="userSpaceOnUse" gradientTransform="translate(246.487 163.017) rotate(-25.5325) scale(134.774 278.405)">
<stop stop-color="#171225"/>
<stop offset="1" stop-color="#171225" stop-opacity="0"/>
</radialGradient>
<radialGradient id="paint16_radial_450_1967" cx="0" cy="0" r="1" gradientUnits="userSpaceOnUse" gradientTransform="translate(58.4328 379.648) rotate(73.0382) scale(113.874 149.093)">
<stop stop-color="#191327"/>
<stop offset="1" stop-color="#191327" stop-opacity="0"/>
</radialGradient>
<clipPath id="clip0_450_1967">
<rect width="558" height="426" fill="white" transform="translate(35 90)"/>
</clipPath>
</defs>
</svg>
